<svg xmlns="http://www.w3.org/2000/svg" width="208.374" height="27" viewBox="0 0 208.374 27">
  <g id="logo-solicode" transform="translate(-25.9 -210.1)">
    <g id="Group_3" data-name="Group 3" transform="translate(60.586 210.1)">
      <path id="Path_3" data-name="Path 3" d="M221.076,232.377a7.886,7.886,0,0,1-1.621,2.442,7.34,7.34,0,0,1-2.442,1.621,7.587,7.587,0,0,1-3,.6H199.24v-7.526H202.7v4.023h11.288a4.1,4.1,0,0,0,4.163-4.163v-4.083H199.2v-7.526a8.033,8.033,0,0,1,.6-3,7.885,7.885,0,0,1,1.621-2.442,7.34,7.34,0,0,1,2.442-1.621,7.587,7.587,0,0,1,3-.6h14.771v6.085h-3.463v-2.622H206.886a3.625,3.625,0,0,0-1.621.34,4.244,4.244,0,0,0-2.222,2.242,3.922,3.922,0,0,0-.34,1.661v4.023h18.954v7.546A6.933,6.933,0,0,1,221.076,232.377Z" transform="translate(-199.2 -210.1)" fill="#fff"/>
      <path id="Path_4" data-name="Path 4" d="M332.165,237.3a6.881,6.881,0,0,1-2.842-.58,7.378,7.378,0,0,1-2.342-1.6,7.609,7.609,0,0,1-1.6-2.342,6.881,6.881,0,0,1-.58-2.842V217.765a6.881,6.881,0,0,1,.58-2.842,7.379,7.379,0,0,1,1.6-2.342,7.61,7.61,0,0,1,2.342-1.6,6.881,6.881,0,0,1,2.842-.58h10.228a6.881,6.881,0,0,1,2.842.58,7.381,7.381,0,0,1,2.342,1.6,7.611,7.611,0,0,1,1.6,2.342,6.881,6.881,0,0,1,.58,2.842v12.169a6.881,6.881,0,0,1-.58,2.842,7.38,7.38,0,0,1-1.6,2.342,7.611,7.611,0,0,1-2.342,1.6,6.881,6.881,0,0,1-2.842.58Zm-3.943-7.385a3.553,3.553,0,0,0,.32,1.5,4.27,4.27,0,0,0,.861,1.261,3.923,3.923,0,0,0,1.261.861,3.553,3.553,0,0,0,1.5.32h10.228a3.579,3.579,0,0,0,1.521-.32,3.808,3.808,0,0,0,1.261-.861,4.213,4.213,0,0,0,.841-1.261,3.553,3.553,0,0,0,.32-1.5V217.725a3.578,3.578,0,0,0-.32-1.521,4.089,4.089,0,0,0-.841-1.261,3.763,3.763,0,0,0-1.261-.841,4.065,4.065,0,0,0-1.521-.32H332.165a3.553,3.553,0,0,0-1.5.32,4.627,4.627,0,0,0-1.261.841,3.532,3.532,0,0,0-.861,1.261,3.709,3.709,0,0,0-.32,1.521Z" transform="translate(-299.661 -210.34)" fill="#fff"/>
      <path id="Path_5" data-name="Path 5" d="M467.943,236.539a7.251,7.251,0,0,1-2.362-1.6,7.949,7.949,0,0,1-1.6-2.362,7.19,7.19,0,0,1-.58-2.922V210.2h3.463v19.454a3.7,3.7,0,0,0,.32,1.561,4.27,4.27,0,0,0,.861,1.261,3.923,3.923,0,0,0,1.261.861,3.7,3.7,0,0,0,1.561.32h10.828v3.463H470.866A7.123,7.123,0,0,1,467.943,236.539Z" transform="translate(-410.521 -210.18)" fill="#fff"/>
      <path id="Path_6" data-name="Path 6" d="M571.463,237.06H568V210.1h3.463Z" transform="translate(-494.185 -210.1)" fill="#fff"/>
      <path id="Path_7" data-name="Path 7" d="M603.4,236.46a7.74,7.74,0,0,1-2.422-1.6,7.108,7.108,0,0,1-1.6-2.422,7.285,7.285,0,0,1-.58-2.942V217.606a7.257,7.257,0,0,1,.58-2.922,7.885,7.885,0,0,1,1.6-2.4,7.106,7.106,0,0,1,2.422-1.6,7.284,7.284,0,0,1,2.942-.58h12.389v3.443H606.346a4.014,4.014,0,0,0-1.6.32,3.9,3.9,0,0,0-1.281.861A4.242,4.242,0,0,0,602.6,216a3.852,3.852,0,0,0-.32,1.581v11.889a3.971,3.971,0,0,0,1.181,2.9,3.864,3.864,0,0,0,2.9,1.181h12.389v3.463H606.366A6.982,6.982,0,0,1,603.4,236.46Z" transform="translate(-518.821 -210.1)" fill="#fdd413"/>
      <path id="Path_8" data-name="Path 8" d="M719.065,237.3a6.881,6.881,0,0,1-2.842-.58,7.379,7.379,0,0,1-2.342-1.6,7.609,7.609,0,0,1-1.6-2.342,6.882,6.882,0,0,1-.581-2.842V217.765a6.882,6.882,0,0,1,.581-2.842,7.379,7.379,0,0,1,1.6-2.342,7.611,7.611,0,0,1,2.342-1.6,6.882,6.882,0,0,1,2.842-.58h10.227a7.041,7.041,0,0,1,2.862.58,7.381,7.381,0,0,1,2.342,1.6,7.612,7.612,0,0,1,1.6,2.342,6.881,6.881,0,0,1,.58,2.842v12.169a6.882,6.882,0,0,1-.58,2.842,7.381,7.381,0,0,1-1.6,2.342,7.611,7.611,0,0,1-2.342,1.6,6.909,6.909,0,0,1-2.862.58Zm-3.943-7.385a3.553,3.553,0,0,0,.32,1.5,4.269,4.269,0,0,0,.861,1.261,3.963,3.963,0,0,0,2.762,1.181h10.227a3.579,3.579,0,0,0,1.521-.32,3.808,3.808,0,0,0,1.261-.861,4.214,4.214,0,0,0,.841-1.261,3.886,3.886,0,0,0,.32-1.5V217.725a3.578,3.578,0,0,0-.32-1.521,4.09,4.09,0,0,0-.841-1.261,3.763,3.763,0,0,0-1.261-.841,3.71,3.71,0,0,0-1.521-.32H719.065a3.553,3.553,0,0,0-1.5.32,4.625,4.625,0,0,0-1.261.841,3.531,3.531,0,0,0-.861,1.261,3.709,3.709,0,0,0-.32,1.521Z" transform="translate(-609.124 -210.34)" fill="#fdd413"/>
      <path id="Path_9" data-name="Path 9" d="M872.637,229.534a7.256,7.256,0,0,1-.58,2.922,7.883,7.883,0,0,1-1.6,2.4,7.107,7.107,0,0,1-2.422,1.6,7.285,7.285,0,0,1-2.942.58H850.1V210.1h14.991a7.352,7.352,0,0,1,2.942.58,7.741,7.741,0,0,1,2.422,1.6,7.024,7.024,0,0,1,1.6,2.4,7.256,7.256,0,0,1,.58,2.922Zm-19.054,4.023h11.508a3.971,3.971,0,0,0,2.9-1.181,3.9,3.9,0,0,0,1.181-2.842V217.626a3.852,3.852,0,0,0-.32-1.581,4.116,4.116,0,0,0-.861-1.281,3.529,3.529,0,0,0-1.281-.861,3.88,3.88,0,0,0-1.6-.32H853.622v19.975Z" transform="translate(-719.823 -210.1)" fill="#fdd413"/>
      <path id="Path_10" data-name="Path 10" d="M994.194,237.3H976V218.066a8.034,8.034,0,0,1,.6-3,7.887,7.887,0,0,1,1.621-2.442A7.341,7.341,0,0,1,980.663,211a7.588,7.588,0,0,1,3-.6h10.528v3.443H983.666a3.625,3.625,0,0,0-1.621.34,4.245,4.245,0,0,0-2.222,2.242,3.922,3.922,0,0,0-.34,1.661v4.023h12.209v3.463H979.483v8.266h14.731v3.5h-.02Z" transform="translate(-820.525 -210.34)" fill="#fdd413"/>
    </g>
    <g id="Group_6" data-name="Group 6" transform="translate(25.9 210.1)">
      <g id="Group_4" data-name="Group 4" transform="translate(0 0.04)">
        <path id="Path_11" data-name="Path 11" d="M36.268,232.6v-5.524c0-.7-.18-1.141-.52-1.321a4.606,4.606,0,0,0-1.9-.26v-4.023a4.606,4.606,0,0,0,1.9-.26c.34-.18.52-.64.52-1.321v-5c0-1.941.4-3.242,1.181-3.883a3.7,3.7,0,0,1,1.6-.7H25.9v26.94H39.03a4.245,4.245,0,0,1-1.6-.7C36.648,235.859,36.268,234.538,36.268,232.6Z" transform="translate(-25.9 -210.3)" fill="#fdd413"/>
      </g>
      <g id="Group_5" data-name="Group 5" transform="translate(12.809 0)">
        <path id="Path_12" data-name="Path 12" d="M104.03,210.1H96.085v3.523H92.4a1.074,1.074,0,0,0-.58.1.636.636,0,0,0-.18.52v5.464c0,1.821-.58,3.022-1.741,3.663,1.161.58,1.741,1.781,1.741,3.623v5.864a.6.6,0,0,0,.18.52,1.074,1.074,0,0,0,.58.1h3.683V237h7.946Z" transform="translate(-89.9 -210.1)" fill="#fdd413"/>
      </g>
    </g>
  </g>
</svg>
